<?xml version="1.0" standalone="no"?><!DOCTYPE svg PUBLIC "-//W3C//DTD SVG 1.1//EN" "http://www.w3.org/Graphics/SVG/1.1/DTD/svg11.dtd"><svg t="1602514365438" class="icon" viewBox="0 0 1024 1024" version="1.1" xmlns="http://www.w3.org/2000/svg" p-id="17814" data-spm-anchor-id="a313x.7781069.0.i5" xmlns:xlink="http://www.w3.org/1999/xlink" width="200" height="200"><defs><style type="text/css"></style></defs><path d="M491.59168 491.59168H15.36V131.01568A115.7888 115.7888 0 0 1 131.01568 15.36h360.576v476.23168zM83.38944 423.55712h340.16768V83.38944H131.01568a47.68256 47.68256 0 0 0-47.616 47.616v292.55168zM491.59168 1008.64H131.01568A115.79392 115.79392 0 0 1 15.36 892.98432v-360.576h476.23168V1008.64z m-408.20224-408.19712v292.54144a47.68256 47.68256 0 0 0 47.616 47.616h292.55168v-340.15744H83.38944zM1008.64 491.59168h-476.23168V15.36h360.576A115.7888 115.7888 0 0 1 1008.64 131.01568v360.576z m-408.19712-68.03456h340.16768V131.01568a47.68256 47.68256 0 0 0-47.616-47.616h-292.55168v340.15744z" fill="#1296db" p-id="17815"></path><path d="M890.66496 1006.5152h-361.18016v-477.0304h477.0304v361.18016a115.9936 115.9936 0 0 1-115.85024 115.85024z m-293.03296-68.1472h293.03296a47.75936 47.75936 0 0 0 47.70304-47.70304v-293.03296h-340.736v340.736z" fill="#1296db" p-id="17816"></path></svg>