<?xml version="1.0" standalone="no"?><!DOCTYPE svg PUBLIC "-//W3C//DTD SVG 1.1//EN" "http://www.w3.org/Graphics/SVG/1.1/DTD/svg11.dtd"><svg t="1600927726156" class="icon" viewBox="0 0 1117 1024" version="1.1" xmlns="http://www.w3.org/2000/svg" p-id="3594" xmlns:xlink="http://www.w3.org/1999/xlink" width="218.1640625" height="200"><defs><style type="text/css"></style></defs><path d="M629.78222656 143.14941406c-27.69543457 14.27783203-51.33361791 34.89697291-73.51171849 56.94653346C508.70739747 147.34179687 440.70642064 116.4921875 368.49328639 116.4921875 229.59094264 116.4921875 116.4921875 228.92846705 116.4921875 367.04309056c0 49.30334498 14.35693359 96.86975098 41.61401342 137.81469727 0.72509791 1.1601565 1.73693822 2.303833 2.7553716 3.31567409l60.02490209 59.97216822-18.99096654 18.87561035c-19.86767603 19.75561523-19.86767603 52.20043971 0 71.95275879 19.86437989 19.75561523 52.49047826 19.75561523 72.3482666 0l87.43688965-86.9293218c19.86767603-19.75561523 19.86767603-52.18725586 0-71.93957494s-52.48718287-19.75231908-72.35485891 0L251.19555689 538.02111791 192.61425756 479.63427709c-21.74963353-33.60168483-33.34790014-72.37463353-33.34790014-112.59118653 0-114.62146022 93.81115697-207.74707006 209.08520508-207.74707005 61.04663086 0 118.47106908 26.38366725 157.9097903 71.65612793-2.61035156 2.73230006-5.07568385 5.32287623-7.68603541 8.06176783C477.24145482 281.9858401 320.21167017 440.70642064 320.21167017 440.70642064s114.69396947 159.8840332 251.14086864 24.0732427l88.3004153-82.17663574s121.50329616 117.78552272 183.13330103 176.75573679l30.29919383 30.12121608a29.47192357 29.47192357 0 0 1 8.70446803 20.89929173c0 7.94311549-3.04870631 15.2830808-8.70446803 20.90588405a29.81140137 29.81140137 0 0 1-21.01794408 8.66162109 29.72900365 29.72900365 0 0 1-18.5690918-6.48303197 16.73327662 16.73327662 0 0 0-2.31701686-2.31701685l-87.42700195-86.93261719c-8.41442872-8.348511-22.03967286-8.348511-30.30908153 0 0 0 0 0.14172389-0.14831542 0.14172389l-0.14172389 0.13842773c-8.41113256 8.37158178-8.41113256 21.91772436 0 30.14758301l87.43029811 86.93261718c0.73168945 0.70861791 1.59191894 1.57873509 2.46533151 2.30053686 4.20556666 5.18115234 6.38415502 11.66418431 6.38415579 18.457031a29.15881348 29.15881348 0 0 1-8.70117188 20.8992925 29.82128906 29.82128906 0 0 1-21.02453638 8.64514109 29.47521973 29.47521973 0 0 1-21.02783178-8.64514109l-87.42700195-86.9227295c-8.41442872-8.37158178-22.042969-8.37158178-30.30908228 0-6.09082031 6.05126953-7.68273926 14.69641139-5.06909155 22.18798828a21.00146484 21.00146484 0 0 0 6.08752416 12.25414989l86.13171387 85.63073756c7.68273926 11.68725586 7.97277858 31.28466797-4.05725123 43.09716771-10.44799779 10.40185547-27.40869141 15.57971166-38.86193797 7.8013916-0.14831543-0.13842773-0.29663086-0.43505859-0.43505859-0.58996556a11.54223658 11.54223658 0 0 0-2.17858913-2.44226075l-60.61157226-60.25891139c-8.40783717-8.35839869-22.03967286-8.35839869-30.30248999 0-1.01184108 1.01184108-1.87866211 2.01379369-2.61035156 3.1739502-20.00610377-16.44653346-50.02514674-15.28967311-68.72607472 3.31567408l-87.4335935 86.91613796c-19.86767603 19.75231908-19.86767603 52.19714356 0 71.95275878 19.86108373 19.75231908 52.49047826 19.75231908 72.35485814 0l36.10327175-35.90222167 33.05786158 32.86669922A72.61193822 72.61193822 0 0 0 625.72167994 907.5078125c18.55920411 0 37.27001978-7.0729983 51.33361791-21.19592259 14.19873047-14.11962891 21.60131811-33.30175781 22.0363767-52.76074219 2.03027369 0 3.9188235-0.13842773 5.94909719-0.28015163 18.26586939-1.87536595 35.66162084-10.24365234 49.1517334-23.65136718 14.78869603-14.71948217 22.18798828-34.89038061 22.03637669-55.21948217 1.16674805 0 2.17858913 0.15490697 3.34533717 0.15490698 18.55261256 0 37.26342748-7.066406 51.32043406-21.20910645 14.07348658-13.96801732 21.17944336-32.2833252 21.17944336-50.59863307 19.2777097-0.14172389 37.40185522-7.63330078 50.88537624-21.04101562 28.27221705-28.11071778 28.27221705-73.96655248 0-102.21240184l-18.41418483-18.31530787c27.39880371-25.07849147 52.34545898-52.04553197 69.88623047-86.20751928 11.74328587-22.91638158 19.57763672-47.72131373 22.90649465-73.24145533 25.08508301-185.09106471-182.5433347-323.77917455-347.55578639-238.5802002z m17.3990476 712.75122045c-11.60156275 11.52905273-30.44751002 11.52905273-42.04907202 0l-33.05456542-32.87329076 21.02453639-20.91577174c8.98461889-8.92529272 13.91857884-20.60266088 14.78210449-32.42175293l40.74389623 40.50659231c0.87011719 1.58532741 2.03356908 3.1739502 3.4837649 4.45935058 0.14172389 0.15490697 0.43505859 0.45153783 0.58337402 0.58996556 6.09082031 11.81909205 5.65246556 29.55102514-5.51403859 40.65490698z m-208.36010716-207.01867676c19.86767603-19.75231908 19.86767603-52.19055202-1e-8-71.94616648-19.86108373-19.75231908-52.49047826-19.75231908-72.3482666 0l-87.4401858 86.93920873c-19.86437989 19.739136-19.86437989 52.17736816 0 71.9329834 19.86767603 19.75231908 52.49377441 19.75231908 72.35485891 0l87.4335935-86.92602565z m76.70544408 76.11877467c19.86108373-19.75561523 19.86108373-52.20043971 0-71.93957494-19.86437989-19.75231908-52.49047826-19.75231908-72.35485815 0L355.74145483 739.98718236c-19.86437989 19.75231908-19.86437989 52.19055202-1e-8 71.93627955 19.86108373 19.75561523 52.48718287 19.75561523 72.35485891 0l87.43029734-86.92272949z" fill="#1296db" p-id="3595"></path></svg>