<?xml version="1.0" standalone="no"?><!DOCTYPE svg PUBLIC "-//W3C//DTD SVG 1.1//EN" "http://www.w3.org/Graphics/SVG/1.1/DTD/svg11.dtd"><svg t="1600927700650" class="icon" viewBox="0 0 1024 1024" version="1.1" xmlns="http://www.w3.org/2000/svg" p-id="3076" xmlns:xlink="http://www.w3.org/1999/xlink" width="200" height="200"><defs><style type="text/css"></style></defs><path d="M944.355556 512H130.844444v341.333333c0 39.822222 28.444444 68.266667 68.266667 68.266667h676.977778c39.822222 0 68.266667-28.444444 68.266667-68.266667V512z" fill="#13227a" p-id="3077"></path><path d="M193.422222 341.333333a17.066667 17.066667 0 1 0 34.133334 0 17.066667 17.066667 0 1 0-34.133334 0Z" fill="#13227a" p-id="3078"></path><path d="M543.687111 784.952889c-11.377778 0-22.755556-5.688889-22.755555-17.066667v-39.822222c0-11.377778 5.688889-17.066667 17.066666-17.066667 17.066667 0 34.133333-17.066667 34.133334-34.133333 0-22.755556-17.066667-39.822222-39.822223-39.822222s-39.822222 17.066667-39.822222 39.822222v5.688889c0 11.377778-5.688889 17.066667-17.066667 17.066667s-17.066667-5.688889-17.066666-17.066667v-5.688889c0-45.511111 34.133333-73.955556 79.644444-73.955556 39.822222 0 73.955556 34.133333 73.955556 73.955556 0 34.133333-22.755556 62.577778-56.888889 68.266667v17.066666c5.688889 17.066667-5.688889 22.755556-11.377778 22.755556z" fill="#13227a" p-id="3079"></path><path d="M542.435556 818.005333m-11.377778 0a11.377778 11.377778 0 1 0 22.755555 0 11.377778 11.377778 0 1 0-22.755555 0Z" fill="#13227a" p-id="3080"></path><path d="M130.844444 512v341.333333c0 39.822222 28.444444 68.266667 68.266667 68.266667h676.977778c39.822222 0 68.266667-28.444444 68.266667-68.266667V512H130.844444z m756.622223 341.333333c0 5.688889-5.688889 11.377778-11.377778 11.377778H199.111111c-5.688889 0-11.377778-5.688889-11.377778-11.377778V563.2h699.733334V853.333333z" fill="#13227a" p-id="3081"></path><path d="M813.511111 517.688889L944.355556 341.333333c0-5.688889 5.688889-11.377778 0-17.066666s-11.377778-11.377778-17.066667-11.377778c-39.822222 0-79.644444-17.066667-108.088889-39.822222l34.133333-85.333334c5.688889-17.066667 5.688889-34.133333 0-51.2-5.688889 0-5.688889-5.688889-5.688889-5.688889-17.066667-28.444444-45.511111-34.133333-73.955555-22.755555-11.377778 5.688889-22.755556 17.066667-28.444445 34.133333l-5.688888 22.755556c-5.688889 11.377778 0 22.755556 11.377777 22.755555 11.377778 5.688889 17.066667 0 22.755556-5.688889l11.377778-22.755555c0-5.688889 5.688889-11.377778 11.377777-17.066667h11.377778c5.688889 5.688889 11.377778 5.688889 11.377778 11.377778V170.666667l-34.133333 91.022222c-39.822222 0-79.644444-17.066667-113.777778-45.511111 0-5.688889-11.377778-5.688889-17.066667-5.688889-5.688889 5.688889-11.377778 11.377778-11.377778 17.066667l-22.755555 290.133333h-113.777778l-147.911111-284.444445c-11.377778-17.066667-22.755556-28.444444-39.822222-28.444444-5.688889 0-17.066667 0-22.755556 5.688889L153.6 290.133333c-17.066667 11.377778-22.755556 39.822222-11.377778 62.577778L227.555556 517.688889h585.955555z m79.644445-164.977778l-119.466667 164.977778h-45.511111l79.644444-199.111111c22.755556 22.755556 56.888889 34.133333 85.333334 34.133333z m-233.244445 164.977778l22.755556-250.311111c28.444444 17.066667 56.888889 22.755556 91.022222 28.444444L682.666667 517.688889h-22.755556zM176.355556 335.644444c0-5.688889 0-11.377778 5.688888-11.377777l136.533334-79.644445 142.222222 273.066667H273.066667L176.355556 335.644444z" fill="#13227a" p-id="3082"></path></svg>