<?xml version="1.0" standalone="no"?><!DOCTYPE svg PUBLIC "-//W3C//DTD SVG 1.1//EN" "http://www.w3.org/Graphics/SVG/1.1/DTD/svg11.dtd"><svg t="1600927639766" class="icon" viewBox="0 0 1024 1024" version="1.1" xmlns="http://www.w3.org/2000/svg" p-id="1885" xmlns:xlink="http://www.w3.org/1999/xlink" width="200" height="200"><defs><style type="text/css"></style></defs><path d="M940.8 67.2h-67.2c-16 0-28.8 9.6-32 25.6l-28.8 150.4H284.8c-16 0-32 12.8-32 32s12.8 32 32 32h518.4l-51.2 281.6c-9.6 38.4-28.8 80-86.4 80H291.2c-32 0-57.6-6.4-76.8-83.2L112 240c-3.2-16-19.2-25.6-38.4-19.2-16 3.2-25.6 22.4-19.2 38.4l102.4 342.4c16 64 44.8 131.2 137.6 131.2h374.4c73.6 0 131.2-48 147.2-131.2L899.2 128h41.6c16 0 32-12.8 32-32s-16-28.8-32-28.8zM294.4 768c-51.2 0-92.8 41.6-92.8 92.8s41.6 92.8 92.8 92.8 92.8-41.6 92.8-92.8c3.2-48-38.4-92.8-92.8-92.8z m0 128c-16 0-32-12.8-32-32s12.8-32 32-32 32 12.8 32 32c0 16-12.8 32-32 32zM668.8 768c-51.2 0-92.8 44.8-92.8 96s41.6 92.8 92.8 92.8 92.8-41.6 92.8-92.8c3.2-51.2-38.4-96-92.8-96z m0 128c-16 0-32-12.8-32-32s12.8-32 32-32 32 12.8 32 32-12.8 32-32 32z" fill="#1afa29" p-id="1886"></path><path d="M348.8 444.8l16 12.8-16 28.8c-6.4 12.8 6.4 25.6 12.8 32 9.6 3.2 22.4 6.4 32 6.4l22.4-35.2 16 9.6-28.8-51.2c0-3.2-54.4-3.2-54.4-3.2z" fill="#1afa29" p-id="1887"></path><path d="M348.8 515.2l35.2 64c6.4 9.6 19.2 9.6 35.2 9.6h35.2v-60.8H384c-9.6 3.2-22.4 0-35.2-12.8zM569.6 396.8l-19.2 9.6-19.2-28.8c-9.6-12.8-25.6-9.6-35.2-3.2-6.4 6.4-16 16-19.2 25.6l19.2 35.2-12.8 12.8h57.6l28.8-51.2z" fill="#1afa29" p-id="1888"></path><path d="M505.6 364.8h-73.6c-9.6 3.2-19.2 12.8-25.6 25.6l-19.2 32 54.4 28.8 35.2-60.8c3.2-9.6 12.8-22.4 28.8-25.6zM508.8 611.2l3.2-19.2 32-3.2c16 0 19.2-19.2 19.2-28.8 0-9.6-6.4-19.2-12.8-28.8h-41.6V512l-28.8 51.2 28.8 48z" fill="#1afa29" p-id="1889"></path><path d="M566.4 572.8l35.2-64c3.2-9.6 0-22.4-9.6-35.2l-19.2-32-51.2 32 35.2 57.6c9.6 12.8 16 25.6 9.6 41.6z" fill="#1afa29" p-id="1890"></path></svg>