<?xml version="1.0" standalone="no"?><!DOCTYPE svg PUBLIC "-//W3C//DTD SVG 1.1//EN" "http://www.w3.org/Graphics/SVG/1.1/DTD/svg11.dtd"><svg t="1600927709710" class="icon" viewBox="0 0 1145 1024" version="1.1" xmlns="http://www.w3.org/2000/svg" p-id="3267" xmlns:xlink="http://www.w3.org/1999/xlink" width="223.6328125" height="200"><defs><style type="text/css"></style></defs><path d="M570.855619 806.521905v73.142857H255.073524a36.571429 36.571429 0 0 1-36.571429-36.571429V274.773333a36.571429 36.571429 0 0 1 36.571429-36.571428H1097.142857a36.571429 36.571429 0 0 1 36.571429 36.571428v568.32a36.571429 36.571429 0 0 1-36.571429 36.571429H800.377905l-94.354286 134.339048-59.830857-42.008381 105.252571-149.894096a36.571429 36.571429 0 0 1 29.915429-15.555047H1060.571429V311.344762H291.644952v495.177143h279.210667z m320.512-182.540191l-48.713143 54.588953a223.207619 223.207619 0 0 0-149.211428-56.856381c-55.832381 0-108.397714 20.431238-149.211429 56.856381l-48.688762-54.564572a296.350476 296.350476 0 0 1 197.900191-75.434666c73.97181 0 143.847619 27.160381 197.924571 75.410285zM85.333333 543.402667h52.297143v73.142857H48.761905a36.571429 36.571429 0 0 1-36.571429-36.571429V48.761905A36.571429 36.571429 0 0 1 48.761905 12.190476h735.036952a36.571429 36.571429 0 0 1 36.571429 36.571429v123.123809h-73.142857V85.333333H85.333333v458.069334z" fill="#2c2c2c" p-id="3268"></path></svg>