<?xml version="1.0" standalone="no"?><!DOCTYPE svg PUBLIC "-//W3C//DTD SVG 1.1//EN" "http://www.w3.org/Graphics/SVG/1.1/DTD/svg11.dtd"><svg t="1600927695940" class="icon" viewBox="0 0 1024 1024" version="1.1" xmlns="http://www.w3.org/2000/svg" p-id="2922" xmlns:xlink="http://www.w3.org/1999/xlink" width="200" height="200"><defs><style type="text/css"></style></defs><path d="M448.1 576m-384 0a384 384 0 1 0 768 0 384 384 0 1 0-768 0Z" fill="#FFCCF5" p-id="2923"></path><path d="M920.3 388.5c1.8 3.4-1.2-3.8-0.1-0.3 1.1 3.5-0.2-4.2-0.1-0.6s0.9-4.2 0.1-0.7c-0.7 3.4 1.9-3.7 0.3-0.6-1.6 3 2.8-3 0.4-0.5 1.3-1.3 3.1-2.1 1.1-1l-0.1 0.1-1.3 0.7-7 4-29.2 17-102.1 59.5c-42.5 24.7-84.9 49.4-127.3 74.2l-112.6 65.6-57.9 33.7-1.4 0.8c-1.1 0.7-2.8 1 1.3-0.5-3.3 1.1 4.3-0.2 0.8-0.1s4.3 0.9 0.8 0.1c-3.4-0.8 3.7 1.9 0.5 0.2-1.5-1-1.1-0.7 1 1-0.5-0.4-1-0.9-1.4-1.4 2.9 3.1 1 1.1 0.3-0.1l-1.9-3.3-18.7-32.1-68.1-117-63.8-109.5-13.2-22.6-0.3-0.4c-0.8-1.3-0.8-1.9 0.4 1.2-0.4-1.3-0.8-4.6-0.2 0.6-0.1-0.7-0.1-1.3 0-1.9-0.5 3-0.5 3.5-0.1 1.7 0.7-3.4-1.9 3.7-0.3 0.6 1.6-3-2.8 3-0.4 0.5-1.4 1.4-3 2-1.1 1l0.4-0.2 5.1-3 69.3-40.4 117.6-68.4 126-73.3 94.4-55 22.9-13.3 3.2-1.9c1.6-1 1-0.3-1.4 0.6 3.3-1.1-4.3 0.2-0.8 0.1s-4.3-0.9-0.8-0.1c3.4 0.8-3.7-1.9-0.5-0.2 3.1 1.7-2.9-2.7-0.3-0.2s-2.1-3.3-0.1-0.1l0.1 0.1 1 1.9 45.6 78.4 72.9 125.3 45.6 78.4c0.7 0.2 1 0.8 1.4 1.4 4.7 8.1 15.5 10.9 23.5 6.2 8.1-4.7 10.9-15.5 6.2-23.5L913.9 309l-72.2-124L788 92.8l-4.1-7.1c-8.7-14.9-28-21.5-43.2-12.6L727.2 81l-82.1 47.8-122.4 71.3-122.9 71.5-83.3 48.5-14.4 8.4c-15.2 8.8-19.2 28.9-10.5 43.7l3.7 6.4 52.7 90.6 72.4 124.3 37.5 64.4c8.7 14.9 28.2 20.9 43.4 12l5.1-3 26.1-15.2 98.4-57.3c80.7-46.9 161.2-94.3 242-140.9l63.7-37.1 3.1-1.8c15.4-9 18.8-28.5 10.7-43.5-4.5-8.2-15.7-10.8-23.5-6.2-8.7 5-11.1 15.4-6.6 23.6z m0 0" fill="#111111" p-id="2924"></path><path d="M485.8 678.9c-13.2 0-25.5-7.1-32.3-18.6L416.1 596l-72.4-124.3-52.7-90.6-3.7-6.3c-5.1-8.6-6.5-19.1-3.9-28.8 2.4-9.2 8.2-16.9 16.2-21.6l14.3-8.4 206.2-120.1L724.8 76.8l13.5-7.8c5.3-3.1 11.3-4.7 17.4-4.7 13.2 0 25.7 7.3 32.6 19l4.1 7.1 125.9 216.2 34.9 60c0.5 0.7 1 1.5 1.4 2.2 9.8 18.3 4.3 40.3-12.5 50.1l-66.8 38.9C822.8 488 769.7 519 718.4 549c-27.9 16.3-56.8 33.2-85.2 49.7L534.8 656l-19.9 11.6 0.2 0.2-0.3-0.2-11.2 6.5c-5.4 3.2-11.6 4.8-17.8 4.8zM318.3 324.8l-13.8 8c-5.8 3.4-9.9 8.9-11.7 15.6-1.9 7.2-0.8 15 2.9 21.3l3.7 6.3 52.7 90.6L424.6 591l37.5 64.4c4.9 8.5 14.1 13.7 23.8 13.7 4.5 0 9-1.2 12.9-3.5l7.6-4.5-20.2-15.3c-0.4-0.2-0.7-0.4-1-0.6H484.9c-0.7 0.3-1.7 0.7-2.7 0.7H478l-0.1-0.8-16.3 0.8 12.6-6.1-3.1-1.5 2.7-0.6-7.1-4.5h0.6l-7.2-4.6 11.9 2.8-10.3-10.9 6.9 3.8-8.1-10.4L471 622l-8.9-15.4-68.1-117-69.2-118.8-1.3 16.7-2-8.8-0.2 1.1-2.9-13.3-0.9 1.1-0.1-0.7-4 3.8 1-7.6-0.8-3.1c-0.6-2.1 0.1-3.9 2.1-5.3-0.2-0.7-0.3-1.6 0.1-2.6l-2.2-19.6 3.8 6.4 0.9-14.1z m187.8 331.6l2.7 3.4 1.7-1-4.4-2.4z m-4.4-7.8l9.3 9.8 18.8-10.9 98.4-57.3c28.4-16.5 57.3-33.4 85.2-49.7 51.4-30 104.5-61 156.8-91.2l55.9-32.5-3.3-8.7-1.4 10.8-1.2-6.4-0.5 2.5-1.6-10.2-5.3 11.8 1.3-13.4-9.4 12 7.1-18.7-24.7 14.4L785 470.4c-16.5 9.6-33 19.2-49.4 28.8-26 15.1-51.9 30.2-77.8 45.4l-112.6 65.6-40.9 23.8 5.2-0.3-13 6.2 3.9 1.9-1.1 0.2 6.7 4.2h-0.6l7.8 5.1-11.5-2.7zM328.9 358.4l9.8 16.9 63.8 109.5 68.1 117 17.6 30.2 52.1-30.4L652.8 536c25.9-15.1 51.9-30.2 77.9-45.4 16.5-9.6 33-19.2 49.4-28.8l102.1-59.5 30.1-17.5-43-74-72.9-125.3-43.2-74.3-18.8 11-94.4 55-126 73.3L396.4 319l-67.5 39.4z m599 54.8l0.2 2.3 0.8-0.5-1-1.8z m0.8-1l0.4 2.8 0.9-0.5-1.3-2.3z m1.3-10.9l3.8 11 3.2-1.9c5.1-3 8.6-7.3 10.5-12.1-0.4 0.2-0.7 0.5-1.1 0.7-3.3 1.9-7.1 2.9-11 2.9-1.9 0-3.7-0.2-5.4-0.6z m-4-13.2c2.3 2.5 5.7 4 9.3 4 2.1 0 4.2-0.6 6-1.6 2.8-1.6 4.8-4.3 5.6-7.5 0.9-3.2 0.4-6.5-1.2-9.3l-1-1.7c-2.2-2.8-5.8-4.4-9.7-4.4-0.6 0-1.3 0-1.9 0.1l-5.7 14.9 0.1 0.4c0.8 1.9 0.2 3.7-1.5 5.1z m-13-33.3l4.5 11.8c0.3-0.5 0.7-0.9 1.1-1.3l1.2-8.7 0.8 4.4 0.4-1.8 0.5 3.4c0.8-0.7 1.7-1.3 2.7-1.8 1.2-0.7 2.5-1.3 3.8-1.7l0.5-1.1-0.1 1c2.6-0.8 5.5-1.2 8.3-1l-26.9-46.3-126-216.4-4.1-7.1c-5-8.6-14.4-14.1-24-14.1-4.4 0-8.6 1.1-12.4 3.4l-5.4 3.2 17.4 16.6c0.5 0.2 0.9 0.4 1.2 0.7l0.1 0.1c0.6-0.3 1.4-0.5 2.3-0.5h4l0.2 0.8 15.3-0.7-8.6 4.4 2.1 0.5-2.1 0.8 17 5.7-17.1-0.2 0.5 0.4-1.7-0.1 4.9 4.2-5.7-1.5 1.3 1.7-4-1.5 40 68.7 72.9 125.3 33.9 58.2-0.5-3.3 2.7 5.1-1-11.3z m-585-12.1l-0.8 5.3 64.3-37.5L509 242.1l126-73.3 102-59.4-3.7 0.2 8.4-4.3-3.7-0.9 1.9-0.7-16.3-5.4 17.6 0.2-1.6-1.3h0.4l-4.4-3.8 6.5 1.6-2.2-2.8 3.2 1.2-6.7-12-6.6 3.9-204.7 119.1-205.9 119.9 4.5 19.8 0.8-1.1 0.3 2.5 3.2-2.8z" fill="#111111" p-id="2925"></path><path d="M353.3 444.2l42.2-24.8 102.6-60.2L625 284.7 740.2 217l67.1-39.4 5.5-3.2c8.1-4.7 10.9-15.5 6.2-23.5-4.7-8.1-15.5-10.9-23.5-6.2l-42.2 24.8-102.6 60.2-126.9 74.5-115.1 67.6-67.1 39.4-5.5 3.2c-8.1 4.7-10.9 15.5-6.2 23.5 4.5 8.1 15.2 11 23.4 6.3z" fill="#111111" p-id="2926"></path><path d="M344.7 451.4c-7.9 0-15.3-4.2-19.3-10.9-2.9-5-3.7-11-2.2-16.8 1.5-5.8 5.1-10.6 10.2-13.5l5.5-3.2 67.1-39.4L521.2 300l126.9-74.5 102.6-60.2 42.2-24.8c3.3-1.9 7.1-3 11-3 8 0 15.4 4.2 19.3 10.9 2.9 5 3.7 11 2.2 16.8-1.5 5.8-5.1 10.6-10.2 13.5l-5.5 3.2-67.1 39.4-115.1 67.6-126.9 74.5L398 423.6l-42.2 24.8c-3.4 1.9-7.2 3-11.1 3zM804 147.3c-2.1 0-4.2 0.6-6 1.6l-42.2 24.8L653.2 234l-126.9 74.5L411.1 376 344 415.4l-5.5 3.2c-2.8 1.6-4.8 4.3-5.6 7.5-0.9 3.2-0.4 6.5 1.2 9.3 2.2 3.7 6.3 6 10.7 6 2.1 0 4.3-0.6 6.1-1.6l42.2-24.8 102.6-60.2 126.9-74.5 115.1-67.6 67.1-39.4 5.6-3.2c2.8-1.6 4.8-4.3 5.6-7.5 0.9-3.2 0.4-6.5-1.2-9.3-2.2-3.7-6.3-6-10.8-6z" fill="#111111" p-id="2927"></path><path d="M602.4 400.9l76.4-46.9 112.6-69 16.1-9.9c8-4.9 11-15.3 6.2-23.5-4.6-8-15.5-11.1-23.5-6.2l-76.4 46.9-112.6 69.1-16.1 9.9c-8 4.9-11 15.3-6.2 23.5 4.6 7.9 15.5 11.1 23.5 6.1z" fill="#111111" p-id="2928"></path><path d="M593.9 408.2c-8 0-15.4-4.2-19.3-10.9-6-10.4-2.5-23.9 7.9-30.2l16.1-9.9 112.6-69.1 76.4-46.9c3.3-2 7.1-3.1 11-3.1 8 0 15.4 4.2 19.4 11 6 10.4 2.5 23.9-7.9 30.2l-16.1 9.9-112.7 69-76.3 46.9c-3.3 2.1-7.1 3.1-11.1 3.1z m204.7-160.1c-2.1 0-4.2 0.6-5.9 1.6l-76.4 46.9-112.6 69.1-16.1 9.9c-5.9 3.6-7.9 11.1-4.5 16.9 2.1 3.7 6.4 6 10.8 6 2.1 0 4.2-0.6 5.9-1.6l76.4-46.9 112.7-69 16.1-9.9c5.8-3.6 7.9-11.1 4.5-16.9-2.2-3.8-6.4-6.1-10.9-6.1z" fill="#111111" p-id="2929"></path><path d="M639.8 458.1l93.5-58 36.9-22.9c7.9-4.9 11-15.3 6.2-23.5-4.6-7.9-15.5-11.1-23.5-6.2l-93.6 58.1-36.9 22.9c-7.9 4.9-11 15.3-6.2 23.5 4.7 7.9 15.6 11.1 23.6 6.1z" fill="#111111" p-id="2930"></path><path d="M631.3 465.4c-8 0-15.4-4.2-19.4-10.9-6.1-10.5-2.6-23.7 7.8-30.2l130.4-81c3.3-2 7.1-3.1 11-3.1 7.9 0 15.5 4.3 19.4 11 6.1 10.4 2.6 23.7-7.9 30.2l-130.4 80.9c-3.1 2-6.9 3.1-10.9 3.1z m129.9-115.3c-2.1 0-4.1 0.6-5.8 1.6L625 432.6c-5.8 3.6-7.9 11.2-4.5 16.9 2.2 3.7 6.5 6 10.9 6 2.1 0 4.2-0.6 5.9-1.6L767.7 373c5.8-3.6 7.9-11.2 4.5-16.9-2.3-3.6-6.5-6-11-6z" fill="#111111" p-id="2931"></path><path d="M581.6 482.9c-0.1-20.3-8.5-40-23.4-53.9-14.8-13.8-35.4-21.4-55.6-19.7-20 1.6-39.3 11-51.8 26.8-6.6 8.4-11.6 17.5-14.4 27.9-2.9 10.8-2.8 21.7-1 32.7 5.6 36.1 41.8 62.6 77.6 59.7 18.5-1.5 36-9.5 48.7-23.2 12.7-13.6 19.7-31.7 19.9-50.3 0.1-9.4-7.9-17.2-17.2-17.2-9.4 0-17.1 7.9-17.2 17.2 0 2.1-0.1 4.2-0.4 6.2 0.6-5.9-0.3 1-0.6 2.5-0.4 1.9-1 3.9-1.7 5.8-0.4 1-1.8 4.4 0.3-0.4-0.5 1.2-1.1 2.4-1.7 3.6-0.9 1.7-1.9 3.4-3 5.1-0.5 0.8-1.1 1.6-1.7 2.4 3-4.1 1-1.3 0.2-0.4-1.3 1.5-2.6 2.9-4 4.3-0.7 0.7-1.4 1.3-2.2 1.9-0.5 0.4-1 0.8-1.5 1.3 2.2-1.6 2.6-2 1.1-0.9-3.2 2.3-6.7 4.2-10.2 5.8 5.2-2.3-1 0.2-2.4 0.7-2.2 0.7-4.6 1.2-6.9 1.6-3.7 0.7 4.3-0.4 0.5-0.1l-3.1 0.2c-2.1 0.1-4.2 0-6.3-0.1-1.1-0.1-4.9-0.6 0.4 0.1-1-0.1-2-0.3-3-0.5-2.3-0.4-4.6-1.1-6.8-1.8-1-0.3-1.9-0.7-2.8-1 4.9 1.9 1.6 0.7 0.5 0.2-1.8-0.8-3.5-1.8-5.2-2.8-1.2-0.7-6.6-4.8-2.1-1.3-1.8-1.4-3.4-3-5.1-4.6-1.3-1.3-2.7-2.8-3.9-4.4 3.6 4.4-0.5-0.9-1.3-2.1-1-1.6-1.9-3.4-2.8-5.2-0.5-1-1.8-4.3 0.1 0.5-0.5-1.2-0.9-2.5-1.3-3.7-0.6-1.9-1.1-3.9-1.5-5.8-0.2-1-0.4-2-0.5-3 0.8 5.3 0.3 1.6 0.1 0.4-0.1-2.1-0.1-4.2-0.1-6.3 0-1 0.1-2.1 0.2-3.1 0.2-3.1-0.7 4.3 0.1-0.5 0.4-2 0.8-4 1.4-5.9 0.4-1.3 2.9-7.8 0.7-2.4 1.6-3.9 3.9-7.5 6.4-11-3.2 4.4-0.4 0.6 0.4-0.3 0.8-1 1.8-1.9 2.7-2.8 0.9-0.9 1.9-1.8 2.8-2.6 0.5-0.4 1-0.8 1.5-1.3-2.2 1.6-2.6 2-1.1 0.9 2.1-1.6 4.3-2.9 6.7-4.1 1.2-0.6 2.4-1.2 3.6-1.7-5.2 2.3 0.2 0.1 1.5-0.4 2.5-0.8 5.2-1.4 7.9-1.9 3.1-0.5-4.4 0.4 0.5 0 1.4-0.1 2.8-0.1 4.2-0.1 1.4 0 2.8 0.1 4.2 0.1 0.7 0.1 1.3 0.1 2.1 0.2-2.8-0.4-3.4-0.4-1.5-0.2 3 0.4 5.9 1.3 8.8 2.2 1.1 0.4 5.6 2.2 0.5 0.1 1.2 0.5 2.4 1.1 3.6 1.7 2.3 1.2 4.6 2.6 6.7 4.1 1.4 1 1 0.7-1.1-0.9 0.5 0.4 1 0.8 1.5 1.3 1 0.8 1.9 1.7 2.8 2.6 1 0.9 1.8 1.9 2.7 2.8 0.4 0.5 0.8 1 1.3 1.5 2.3 2.8-2.5-3.3-0.3-0.4 1.6 2.1 2.9 4.3 4.1 6.6 0.6 1.2 1.2 2.4 1.7 3.6-2.2-5-0.4-0.7 0.1 0.5 0.9 2.5 1.5 5.2 2 7.8 0.9 4.9-0.2-2.6 0.1 0.5 0.1 1.7 0.2 3.4 0.2 5.2 0.1 9.4 7.8 17.2 17.2 17.2 9.2-0.3 17.1-8.2 17.1-17.5z" fill="#E137BF" p-id="2932"></path><path d="M507.5 561.6c-17.8 0-35.5-6.5-49.9-18.2-14.8-12-24.4-28.3-27.1-45.9-2.1-13.1-1.7-24.1 1.2-34.7 2.8-10.4 7.8-20.1 15.2-29.6 12.9-16.4 33.1-26.9 55.3-28.7 2-0.2 4.1-0.3 6.1-0.3 19.4 0 38.8 7.7 53.3 21.2 15.5 14.5 24.6 35.2 24.9 56.7v1.6c-0.3 19.8-7.9 38.6-21.3 53-13.3 14.3-31.7 23.1-51.9 24.7-1.9 0.1-3.8 0.2-5.8 0.2z m0.8-147.6c-1.8 0-3.6 0.1-5.3 0.2-19.5 1.6-37.1 10.7-48.3 25-6.6 8.4-11 17-13.5 26.1-2.5 9.2-2.8 18.9-0.9 30.6 4.8 30.8 35 55.8 67.3 55.8 1.7 0 3.4-0.1 5-0.2 17.7-1.4 33.8-9.1 45.5-21.6 7.2-7.7 12.5-16.9 15.5-26.9-2.8 1.3-5.8 2.1-9 2.1-5.9 0-11.3-2.3-15.3-6.1-0.3 0.7-0.6 1.3-0.9 1.9 0 0.1 0 0.1-0.1 0.2-0.1 0.3-0.3 0.5-0.4 0.7l-0.3 0.6-0.2 0.3c-0.7 1.3-1.4 2.5-2.1 3.6l0.1 0.2-1.6 2.1c-0.4 0.5-0.8 1.1-1.2 1.6l15.6-2.9-32.2 16-0.6 0.3c-0.5 0.3-1.1 0.5-1.6 0.8l-0.1-0.2c-0.1 0-0.2 0.1-0.3 0.1-1 0.4-2 0.7-2.4 0.9h-0.1c-1.5 0.5-3.1 0.9-4.8 1.2-1.1 0.5-2.5 0.8-4.5 0.8H507v-0.1h-0.6l-17.2 3.2 8.8-4.3c-1.7-0.4-3.2-0.9-4.8-1.3-0.6-0.1-1.2-0.3-2.1-0.7-0.3-0.1-0.6-0.2-1-0.4l-0.5-0.2v-0.1c-1.8-0.8-3.6-1.8-5.5-3.1-0.5-0.3-1.3-0.9-2.4-1.7l-0.1 0.1c-0.6-0.5-1.2-0.9-1.7-1.5-1.3-1.1-2.5-2.2-3.6-3.3l-0.2-0.2c-1.6-1.6-3.1-3.3-4.3-4.9l0.1-0.1c-0.8-1.1-1.3-1.8-1.7-2.4-1-1.6-1.8-3.2-2.6-4.7l-0.3-0.6h-0.1c-0.2-0.4-0.3-0.8-0.5-1.2l-0.3-0.9c0-0.1-0.1-0.2-0.2-0.4l-0.1-0.1c-0.1-0.3-0.2-0.7-0.3-1.2 0-0.1-0.1-0.2-0.1-0.3l-0.1-0.2c-0.7-2.3-1.2-4.4-1.6-6.3 0-0.2-0.1-0.3-0.1-0.5s-0.1-0.3-0.1-0.5c-0.1-0.3-0.1-0.6-0.1-0.8-0.1-0.3-0.1-0.7-0.2-1.1l-0.1-0.3h0.1c-0.1-1.2-0.1-2.4-0.1-3.6v-5c0-1.6 0.3-2.9 0.7-3.8 0.4-1.9 0.8-3.6 1.3-5.2 0.2-0.6 0.5-1.5 1-2.8l-0.1-0.1c0.3-0.8 0.7-1.6 1-2.3 1.2-2.5 2.7-5 4.4-7.6 0.1-0.1 0.2-0.2 0.2-0.3l0.6-0.9c0.2-0.3 0.4-0.6 0.7-0.9l0.1 0.1c0.2-0.2 0.4-0.4 0.5-0.6 0.9-1.1 1.9-2.1 2.8-3l0.1-0.1c0.7-0.7 1.3-1.3 2-1.9 0.8-0.9 1.8-1.7 2.9-2.5v0.1c1.9-1.3 3.9-2.5 6.1-3.7 0.3-0.2 0.6-0.3 0.9-0.5l0.4-0.2c0.4-0.2 0.8-0.4 1.5-0.7 0.3-0.2 0.7-0.3 1-0.5l0.1 0.2c0.7-0.3 1.4-0.5 1.7-0.7h0.1c2-0.7 4.1-1.2 6.4-1.6 0.9-0.4 2.2-0.6 3.7-0.6h7.6c0.3 0 0.6 0 3.4 0.4 2.9 0.5 5.5 1.3 8 2.1h0.1c0.2 0.1 0.5 0.2 0.9 0.3v-0.1c0.6 0.3 1.3 0.5 1.9 0.8 0.1 0 0.2 0.1 0.2 0.1 0.2 0.1 0.3 0.2 0.5 0.2 0.4 0.2 0.9 0.4 1.3 0.7 2 1.1 4.1 2.3 6.2 3.7l0.1-0.1c0.2 0.2 0.4 0.3 0.7 0.5 0.4 0.3 0.7 0.6 1.1 0.9 0.1 0 0.1 0.1 0.1 0.1 0.3 0.3 0.7 0.6 1 1 0.7 0.6 1.4 1.3 2 1.9 0.9 0.8 1.6 1.6 2.3 2.4l0.6 0.7c1.1 0.9 2.1 2.2 2.6 3.4 1.1 1.6 2.2 3.4 3.2 5.4l0.1 0.1c0.2 0.5 0.5 0.9 0.7 1.4v0.1c0.3 0.5 0.5 1 0.7 1.5 0.1 0.2 0.2 0.3 0.2 0.5 4-3.8 9.3-6.1 15.1-6.1 3.3 0 6.4 0.7 9.2 2-3.5-11.5-10-22-18.7-30.2-12.4-11.3-29.4-18.1-46.3-18.1z m-19.1 105l2.1 0.4-2.1-0.4z m-7.2-0.6c0.3 0.1 0.6 0.1 0.9 0.1v-1.3l-0.9 1.2z m20.9-1.3c0.4 0 0.8 0.1 1 0.1 2.2 0.2 3.9 0.2 5.7 0.1l2.7-0.2c1.9-0.3 3.8-0.8 5.6-1.3 0.4-0.1 1.2-0.4 1.9-0.7 1.1-0.4 1.7-0.6 2.1-0.8 2.5-1.2 4.7-2.5 6.6-3.9l0.7-0.6c0.6-0.5 1.2-1 1.8-1.6l0.1-0.1c1.3-1.2 2.5-2.5 3.7-3.9l0.1-0.1c0.1-0.1 0.4-0.5 0.9-1.1l0.1-0.2c1.2-1.9 2.1-3.4 2.8-4.7l0.1-0.2c0.2-0.5 0.5-1 0.7-1.5 0.1-0.3 0.3-0.7 0.3-0.9 0.6-1.8 1.2-3.5 1.5-5.1 0.1-0.5 0.2-1.4 0.4-2.3 0.1-0.6 0.2-1.3 0.4-2.1 0.1-1.2 0.1-2.3 0.1-3.3 0-0.5 0-1 0.1-1.4 0-1.1-0.1-2.1-0.2-3.2v-0.1c-0.4-2.1-1-4.7-1.8-7-0.1-0.3-0.4-0.9-0.6-1.5-0.1-0.3-0.2-0.6-0.3-0.8l-0.6-1.2c-1.1-2.2-2.3-4-3.5-5.7l-1.5-1.8c-0.6-0.7-1.2-1.3-1.7-1.8l-0.1-0.1c-0.8-0.8-1.7-1.6-2.6-2.4l-0.3-0.3-0.1-0.1c-2-1.4-3.9-2.6-5.7-3.5l-1.8-0.9c-0.6-0.2-1.3-0.5-1.6-0.6-2.2-0.7-4.5-1.3-6.9-1.8-0.5-0.1-1-0.1-1.4-0.2h-0.2c-1.2-0.1-2.4-0.1-3.6-0.1-1.3 0-2.5 0-3.7 0.1-0.4 0-0.7 0.1-0.9 0.1-2.3 0.4-4.4 0.9-6.4 1.6-0.4 0.1-1 0.4-1.6 0.6-0.8 0.3-1.4 0.5-1.8 0.7-0.3 0.2-0.7 0.3-1 0.5-2 1-3.7 2.1-5.3 3.2l-0.7 0.6c-0.9 0.7-1.7 1.5-2.6 2.4l-0.1 0.1c-0.8 0.8-1.6 1.6-2.3 2.4-0.2 0.3-0.7 0.9-1.1 1.4-0.2 0.3-0.4 0.5-0.5 0.7-1.4 2.1-2.6 4.1-3.6 6.1-0.1 0.3-0.2 0.7-0.4 1.1-0.3 0.7-0.8 2.2-0.9 2.6v0.1c-0.5 1.6-0.9 3.4-1.3 5.3v0.1c0 0.4-0.1 0.7-0.1 1.1-0.1 0.6-0.1 1.2-0.1 1.6 0 2 0 3.9 0.1 5.8l0.3 2.1c0.3 1.6 0.7 3.3 1.3 5.2 0.1 0.4 0.3 0.7 0.4 1.1 0.1 0.3 0.2 0.7 0.3 1 0.1 0.2 0.1 0.3 0.2 0.5l0.4 0.7c0.7 1.4 1.4 2.8 2.2 4 0.2 0.3 1.1 1.5 1.5 2.1 0.4 0.5 0.7 1 1 1.5 0.6 0.7 1.2 1.3 1.9 2l0.1 0.1c1.1 1 2 2 3.1 2.9 0.3 0.2 0.7 0.5 1.1 0.8 0.7 0.5 1.8 1.3 2.1 1.5 1.6 1 3.1 1.9 4.6 2.5l0.1 0.1c0.1 0.1 0.3 0.1 0.5 0.2l0.2 0.1c0.3 0.1 0.5 0.2 0.8 0.3 2.2 0.6 4.2 1.3 6.3 1.7h0.2c0.3 0.2 0.6 0.3 0.8 0.3z m-17.7-2.8l2.4 0.9c0.5-1.4 0.3-2.7-0.1-3.7l-2.3 2.8z m43-2.4c-0.1 0.4-0.2 0.8-0.2 1.2l1.1-0.2-0.9-1z m10.9-3.2l-0.5 1.8 0.5-1.8z m-66.3-3.3c-0.6 1.1-0.7 2.2-0.5 3.2l2.6-2-2.1-1.2z m4.4-2.6v2l2-1.6c-0.6-0.3-1.3-0.4-2-0.4z m75-18.9c0.5 6.4 5.8 11.4 12.2 11.4 6.3-0.1 12-5.5 12.2-11.9v-1c-0.2-6.4-5.8-11.7-12.3-11.7-6.1 0-11.3 4.6-12.1 10.6v2.6z m-9.7 4.7c0.2 0.5 0.5 1 1 1.5l0.1-0.1c-0.1-0.4-0.3-0.9-0.4-1.3l-0.7-0.1z m-77.3-2.4l0.9 0.8-0.9-0.8z m6.5-16.9v2.4c1.2 0 2.3-0.5 3.1-1.1l-3.1-1.3z m69.3 1.4c0.7 0.5 1.7 0.8 2.8 0.8v-2.1l-2.8 1.3z m-74.2-3.5c0.1 0.8 0.3 1.6 0.9 2.4l1.8-1.3-2.7-1.1z m79.5 1.2l0.9 0.7c0.4-0.5 0.9-1.1 1.4-1.6v-0.1l-2.3 1z m-61-17l2 2.5c0.3-0.9 0.4-2-0.1-3.2l-1.9 0.7z m43.2-0.6l2 0.7-2-0.7z m-46.3-3.3l0.4 0.5v-0.5h-0.4z m37.3-1.6l1.8 0.4-1.8-0.4z" fill="#E137BF" p-id="2933"></path><path d="M344.5 679.8H726c9.4 0 17.2-7.8 17.2-17.2 0-9.4-7.9-17.2-17.2-17.2H344.5c-9.4 0-17.2 7.9-17.2 17.2 0 9.4 7.9 17.2 17.2 17.2z" fill="#111111" p-id="2934"></path><path d="M726 684.7H344.5c-12.2 0-22.1-9.9-22.1-22.1 0-12.2 9.9-22.1 22.1-22.1H726c12.2 0 22.1 9.9 22.1 22.1 0 12.2-9.9 22.1-22.1 22.1z m-381.5-34.4c-6.7 0-12.3 5.6-12.3 12.3 0 6.6 5.6 12.3 12.3 12.3H726c6.7 0 12.3-5.6 12.3-12.3 0-6.7-5.6-12.3-12.3-12.3H344.5z" fill="#111111" p-id="2935"></path><path d="M808.9 679.8h78c9.4 0 17.2-7.8 17.2-17.2 0-9.4-7.9-17.2-17.2-17.2h-78c-9.4 0-17.2 7.9-17.2 17.2 0.1 9.4 7.8 17.2 17.2 17.2z" fill="#111111" p-id="2936"></path><path d="M887 684.7h-78c-12.2 0-22.1-9.9-22.1-22.1 0-12.2 9.9-22.1 22.1-22.1h78c12.2 0 22.1 9.9 22.1 22.1 0 12.2-9.9 22.1-22.1 22.1z m-78.1-34.4c-6.6 0-12.3 5.6-12.3 12.3 0 6.6 5.6 12.3 12.3 12.3h78c6.7 0 12.3-5.6 12.3-12.3 0-6.7-5.6-12.3-12.3-12.3h-78z" fill="#111111" p-id="2937"></path></svg>