<?xml version="1.0" standalone="no"?><!DOCTYPE svg PUBLIC "-//W3C//DTD SVG 1.1//EN" "http://www.w3.org/Graphics/SVG/1.1/DTD/svg11.dtd"><svg t="1600927717516" class="icon" viewBox="0 0 1024 1024" version="1.1" xmlns="http://www.w3.org/2000/svg" p-id="3453" xmlns:xlink="http://www.w3.org/1999/xlink" width="200" height="200"><defs><style type="text/css"></style></defs><path d="M760.68864 838.93248h-33.50528V194.54976h33.50528a33.41312 33.41312 0 0 1 33.50528 33.18784v577.6896a33.4848 33.4848 0 0 1-33.50528 33.50528z m-458.15808-33.50528v-33.18784h55.73632a66.69312 66.69312 0 1 0 0-133.38624h-55.73632v-55.41888h55.73632a66.69312 66.69312 0 1 0 0.31744-133.38624h-56.05376v-55.41888h55.73632a66.69312 66.69312 0 1 0 0-133.38624h-55.73632v-33.18784a33.4848 33.4848 0 0 1 33.51552-33.50528H693.3504v644.38272H336.04608a33.4848 33.4848 0 0 1-33.51552-33.50528z m89.56928-477.48096a33.41312 33.41312 0 0 1-33.50528 33.18784h-89.56928a33.35168 33.35168 0 1 1 0-66.69312h89.25184a33.792 33.792 0 0 1 33.82272 33.49504z m-123.07456 155.648h89.25184a33.18784 33.18784 0 1 1 0 66.37568h-89.25184a33.18784 33.18784 0 1 1 0-66.37568z m0 188.80512h89.25184a33.18784 33.18784 0 1 1 0 66.37568h-89.25184a33.18784 33.18784 0 1 1 0-66.37568z" fill="#FF5A76" p-id="3454"></path><path d="M587.6736 432.32256a54.03648 54.03648 0 0 1 54.12864 54.12864c0 49.29536-97.9456 115.02592-97.9456 115.02592s-97.9456-63.15008-97.9456-115.02592c0-37.04832 24.1664-54.12864 54.12864-54.12864a54.14912 54.14912 0 0 1 43.81696 22.23104 54.14912 54.14912 0 0 1 43.81696-22.23104z" fill="#FFFFFF" p-id="3455"></path></svg>